<svg xmlns="http://www.w3.org/2000/svg" width="1920" height="602" viewBox="0 0 1920 602" fill="none"><path d="M50 5.58105H1870C1894.53 5.58105 1914.42 25.4683 1914.42 50V551.303C1914.42 575.834 1894.53 595.721 1870 595.721H50C25.4684 595.721 5.58129 575.834 5.58105 551.303V50C5.58105 25.4683 25.4683 5.58105 50 5.58105Z" fill="white" stroke="#9A9FAA" stroke-width="11.1628"></path><path d="M465.487 203.371H486.881V169.854H506.135C527.814 169.854 542.219 156.876 542.219 136.766C542.219 116.513 527.814 103.534 506.135 103.534H465.487V203.371ZM504.138 121.362C514.122 121.362 520.54 127.21 520.54 136.766C520.54 146.179 514.122 152.026 504.138 152.026H486.881V121.362H504.138ZM552.64 203.371H572.75V103.534H552.64V203.371ZM656.65 186.399C653.512 186.399 651.944 185.686 651.944 181.835V155.877C651.944 138.335 640.106 129.207 619.568 129.207C600.171 129.207 587.05 138.62 585.623 152.882H605.02C605.876 147.462 611.153 143.897 618.997 143.897C627.412 143.897 632.119 148.176 632.119 154.736V158.302H617.571C595.607 158.302 583.912 167.145 583.912 182.691C583.912 196.668 595.322 204.227 611.153 204.227C622.563 204.227 629.979 199.52 635.114 191.391C634.971 198.379 638.252 203.371 648.663 203.371H658.932V186.399H656.65ZM632.119 173.135C631.976 183.118 625.558 189.679 615.004 189.679C608.301 189.679 604.165 186.399 604.165 181.264C604.165 175.132 609.014 171.709 617.429 171.709H632.119V173.135ZM671.989 182.405C671.989 196.383 678.978 203.371 692.955 203.371H709.356V186.399H699.373C694.096 186.399 692.099 184.259 692.099 179.125V147.035H708.929V130.062H692.099V109.524H671.989V130.062H659.866V147.035H671.989V182.405ZM728.79 122.218C735.351 122.218 740.485 117.369 740.485 110.951C740.485 104.39 735.351 99.5408 728.79 99.5408C722.229 99.5408 717.095 104.39 717.095 110.951C717.095 117.369 722.229 122.218 728.79 122.218ZM718.664 203.371H738.916V130.062H718.664V203.371ZM794.862 129.207C783.595 129.207 776.891 133.485 772.185 139.19L770.331 130.062H752.788V203.371H772.898V165.861C772.898 153.167 778.888 145.751 789.3 145.751C799.426 145.751 804.132 152.312 804.132 164.72V203.371H824.242V162.723C824.242 137.621 810.693 129.207 794.862 129.207ZM885.834 166.717C885.834 180.266 879.986 187.54 870.002 187.54C860.019 187.54 855.74 181.122 855.74 168V130.062H835.63V170.71C835.63 196.668 849.607 204.227 864.725 204.227C875.137 204.227 881.555 200.233 886.262 194.528L888.116 203.371H905.944V130.062H885.834V166.717ZM1007.64 129.207C996.514 129.207 987.957 133.771 982.823 141.615C978.259 132.344 969.844 129.064 960.858 129.207C950.162 129.349 943.744 133.485 939.322 139.19L937.468 130.062H919.925V203.371H940.035V163.436C940.035 152.454 945.74 145.751 954.44 145.751C963.283 145.751 967.277 151.456 967.277 162.438V203.371H987.387V163.294C987.387 152.169 993.234 145.751 1001.93 145.751C1010.63 145.751 1014.63 151.456 1014.63 162.438V203.371H1034.74V161.297C1034.74 137.764 1022.76 129.207 1007.64 129.207ZM1078.61 121.933H1107.42V203.371H1128.81V121.933H1157.77V103.534H1078.61V121.933ZM1202.52 130.062C1191.11 130.062 1185.4 134.484 1181.41 141.044L1179.56 130.062H1161.3V203.371H1181.41V167.43C1181.41 156.305 1185.97 148.318 1197.95 148.318H1205.94V130.062H1202.52ZM1263.84 166.717C1263.84 180.266 1258 187.54 1248.01 187.54C1238.03 187.54 1233.75 181.122 1233.75 168V130.062H1213.64V170.71C1213.64 196.668 1227.62 204.227 1242.73 204.227C1253.15 204.227 1259.56 200.233 1264.27 194.528L1266.13 203.371H1283.95V130.062H1263.84V166.717ZM1294.51 178.982C1295.37 194.671 1309.2 204.227 1329.6 204.227C1349.28 204.227 1362.97 194.956 1362.97 180.409C1362.97 163.864 1348.99 160.013 1332.16 158.302C1321.61 157.018 1315.34 156.448 1315.34 150.885C1315.34 146.179 1320.47 143.326 1328.31 143.326C1336.44 143.326 1342.01 146.892 1342.58 152.74H1361.83C1360.83 137.764 1347.28 129.064 1327.6 129.064C1308.77 128.921 1296.08 138.477 1296.08 153.025C1296.08 168.143 1309.34 171.994 1326.46 173.991C1338.3 175.559 1343.29 175.987 1343.29 181.977C1343.29 187.112 1338.15 189.822 1329.74 189.822C1319.9 189.822 1314.34 185.4 1313.62 178.982H1294.51ZM1378.84 182.405C1378.84 196.383 1385.83 203.371 1399.81 203.371H1416.21V186.399H1406.23C1400.95 186.399 1398.95 184.259 1398.95 179.125V147.035H1415.78V130.062H1398.95V109.524H1378.84V130.062H1366.72V147.035H1378.84V182.405ZM1460.63 204.227C1480.17 204.227 1492.86 192.817 1495.14 178.555H1475.32C1473.61 185.4 1467.9 188.966 1459.77 188.966C1449.65 188.966 1442.94 182.691 1442.52 172.279V171.281H1495.71C1496.14 168.999 1496.28 166.574 1496.28 164.435C1496 142.898 1481.17 129.207 1459.2 129.207C1436.53 129.207 1421.55 144.039 1421.55 166.859C1421.55 189.537 1436.24 204.227 1460.63 204.227ZM1442.94 158.159C1444.08 149.459 1450.65 144.182 1459.35 144.182C1468.47 144.182 1474.61 149.174 1476.03 158.159H1442.94ZM1560.47 139.19C1555.77 133.2 1548.49 129.207 1538.37 129.207C1518.83 129.207 1504.42 143.897 1504.42 166.574C1504.42 189.822 1518.83 204.227 1538.51 204.227C1549.06 204.227 1556.19 199.52 1561.04 193.245L1563.04 203.371H1580.58V103.534H1560.47V139.19ZM1542.93 187.825C1531.95 187.825 1524.96 179.268 1524.96 166.717C1524.96 154.166 1531.95 145.608 1542.93 145.608C1553.91 145.608 1560.76 154.308 1560.76 166.859C1560.76 179.268 1553.91 187.825 1542.93 187.825ZM461.494 313.568C461.636 333.82 477.468 347.227 502.855 347.227C526.245 347.227 541.648 334.391 541.791 315.707C541.934 295.597 526.815 290.462 509.701 287.325C493.156 284.187 485.312 282.476 485.312 274.346C485.312 266.644 491.873 262.793 501.001 262.793C511.412 262.793 517.83 268.641 518.829 277.056H539.794C539.509 257.944 524.534 245.678 501.001 245.678C478.466 245.678 463.776 258.229 463.776 275.915C463.776 296.167 478.609 301.587 495.438 304.725C512.125 308.005 520.255 309.717 520.255 318.132C520.255 325.976 512.981 330.255 503.14 330.255C490.874 330.255 483.173 323.551 482.459 313.853L461.494 313.568ZM589.285 347.227C608.824 347.227 621.518 335.817 623.8 321.555H603.975C602.264 328.4 596.559 331.966 588.429 331.966C578.303 331.966 571.599 325.691 571.172 315.279V314.281H624.37C624.798 311.999 624.941 309.574 624.941 307.435C624.656 285.898 609.823 272.207 587.859 272.207C565.181 272.207 550.206 287.039 550.206 309.859C550.206 332.537 564.896 347.227 589.285 347.227ZM571.599 301.159C572.74 292.459 579.301 287.182 588.001 287.182C597.129 287.182 603.262 292.174 604.688 301.159H571.599ZM677.149 273.062C665.739 273.062 660.034 277.484 656.041 284.044L654.187 273.062H635.931V346.371H656.041V310.43C656.041 299.305 660.605 291.318 672.585 291.318H680.572V273.062H677.149ZM710.201 346.371H735.16L761.546 273.062H740.437L723.037 325.833L705.352 273.062H683.816L710.201 346.371ZM778.374 265.218C784.935 265.218 790.069 260.369 790.069 253.951C790.069 247.39 784.935 242.541 778.374 242.541C771.814 242.541 766.679 247.39 766.679 253.951C766.679 260.369 771.814 265.218 778.374 265.218ZM768.248 346.371H788.501V273.062H768.248V346.371ZM836.887 347.227C856.854 347.227 870.118 336.245 872.971 318.702H851.862C850.436 326.118 845.159 330.825 837.315 330.825C826.761 330.825 820.057 322.268 820.057 309.717C820.057 297.308 826.761 288.608 837.315 288.608C845.159 288.608 850.151 293.172 851.862 300.446H872.828C869.976 283.046 857.567 272.207 837.6 272.207C814.352 272.207 799.519 287.039 799.519 309.717C799.519 332.822 813.639 347.227 836.887 347.227ZM919.799 347.227C939.339 347.227 952.032 335.817 954.314 321.555H934.49C932.778 328.4 927.073 331.966 918.944 331.966C908.817 331.966 902.114 325.691 901.686 315.279V314.281H954.885C955.313 311.999 955.455 309.574 955.455 307.435C955.17 285.898 940.337 272.207 918.373 272.207C895.696 272.207 880.72 287.039 880.72 309.859C880.72 332.537 895.411 347.227 919.799 347.227ZM902.114 301.159C903.255 292.459 909.816 287.182 918.516 287.182C927.644 287.182 933.777 292.174 935.203 301.159H902.114ZM1017.51 346.371L1025.21 324.55H1063.15L1070.85 346.371H1093.82L1057.59 246.534H1031.92L995.405 346.371H1017.51ZM1044.04 269.354L1057.3 307.292H1030.92L1044.04 269.354ZM1111 346.371H1132.39L1145.51 302.158L1158.35 346.371H1179.74L1203.85 273.062H1183.31L1168.33 324.835L1154.93 273.062H1136.81L1122.98 324.692L1108.29 273.062H1087.04L1111 346.371ZM1277.43 329.399C1274.29 329.399 1272.72 328.686 1272.72 324.835V298.877C1272.72 281.335 1260.88 272.207 1240.34 272.207C1220.95 272.207 1207.83 281.62 1206.4 295.882H1225.8C1226.65 290.462 1231.93 286.897 1239.77 286.897C1248.19 286.897 1252.9 291.176 1252.9 297.736V301.302H1238.35C1216.38 301.302 1204.69 310.145 1204.69 325.691C1204.69 339.668 1216.1 347.227 1231.93 347.227C1243.34 347.227 1250.76 342.52 1255.89 334.391C1255.75 341.379 1259.03 346.371 1269.44 346.371H1279.71V329.399H1277.43ZM1252.9 316.135C1252.75 326.118 1246.34 332.679 1235.78 332.679C1229.08 332.679 1224.94 329.399 1224.94 324.264C1224.94 318.132 1229.79 314.709 1238.21 314.709H1252.9V316.135ZM1328.71 273.062C1317.3 273.062 1311.59 277.484 1307.6 284.044L1305.74 273.062H1287.49V346.371H1307.6V310.43C1307.6 299.305 1312.16 291.318 1324.14 291.318H1332.13V273.062H1328.71ZM1391.94 282.19C1387.24 276.2 1379.96 272.207 1369.84 272.207C1350.3 272.207 1335.89 286.897 1335.89 309.574C1335.89 332.822 1350.3 347.227 1369.98 347.227C1380.53 347.227 1387.66 342.52 1392.51 336.245L1394.51 346.371H1412.05V246.534H1391.94V282.19ZM1374.4 330.825C1363.42 330.825 1356.43 322.268 1356.43 309.717C1356.43 297.166 1363.42 288.608 1374.4 288.608C1385.38 288.608 1392.23 297.308 1392.23 309.859C1392.23 322.268 1385.38 330.825 1374.4 330.825Z" fill="#292F36"></path><path d="M463.34 496.836V486.18L488.876 465.06C494.732 460.26 498.38 456.228 498.38 450.756C498.38 444.132 494.06 440.676 487.916 440.676C481.484 440.676 477.068 445.092 477.068 452.388V453.444H463.148V451.524C463.148 438.852 472.652 429.06 488.012 429.06C503.756 429.06 512.3 437.604 512.3 450.18C512.3 460.068 506.924 466.116 498.476 472.932L483.404 485.22H512.684V496.836H463.34ZM518.59 464.772V461.7C518.59 441.636 530.014 429.06 546.238 429.06C562.558 429.06 573.982 441.636 573.982 461.7V464.772C573.982 485.22 562.558 497.412 546.238 497.412C530.014 497.412 518.59 485.22 518.59 464.772ZM560.158 464.292V462.18C560.158 448.356 554.494 440.772 546.238 440.772C538.078 440.772 532.414 448.356 532.414 462.18V464.292C532.414 478.212 538.078 485.7 546.238 485.7C554.494 485.7 560.158 478.212 560.158 464.292ZM579.309 496.836V486.18L604.845 465.06C610.701 460.26 614.349 456.228 614.349 450.756C614.349 444.132 610.029 440.676 603.885 440.676C597.453 440.676 593.037 445.092 593.037 452.388V453.444H579.117V451.524C579.117 438.852 588.621 429.06 603.981 429.06C619.725 429.06 628.269 437.604 628.269 450.18C628.269 460.068 622.893 466.116 614.445 472.932L599.373 485.22H628.653V496.836H579.309ZM640.703 486.852C636.767 481.188 634.559 473.22 634.559 463.908C634.559 441.444 645.311 429.06 662.207 429.06C674.783 429.06 684.671 436.26 686.207 448.548H672.575C671.327 443.172 667.103 440.196 661.151 440.196C652.511 440.196 647.615 447.108 647.615 459.492V461.124C647.903 460.644 648.095 460.26 648.479 459.684C651.551 454.884 657.407 451.812 664.319 451.812C677.855 451.812 687.071 461.028 687.071 474.564C687.071 488.292 676.991 497.412 662.015 497.412C652.607 497.412 645.407 493.572 640.703 486.852ZM673.247 474.564C673.247 467.46 668.927 462.564 662.111 462.564C655.295 462.564 650.591 467.364 650.591 474.564C650.591 481.764 655.103 486.564 661.919 486.564C668.735 486.564 673.247 481.668 673.247 474.564Z" fill="#9A9FAA"></path><path d="M73.6758 237.707L225.061 389.092L376.445 237.707H73.6758Z" fill="#D9D9D9"></path><path d="M73.6758 237.709H225.061V86.3242L73.6758 237.709Z" fill="url(#paint0_linear_6072_2526)"></path><path d="M376.443 237.707H225.059V389.092L376.443 237.707Z" fill="#9A9FAA"></path><path d="M332.713 496.745L225.062 389.094L117.41 496.745H332.713Z" fill="#9A9FAA"></path><path d="M1532.65 456.484H1502.49C1503.82 450.356 1509.46 446.276 1517.39 446.276C1525.31 446.276 1530.36 449.886 1532.65 456.484ZM1551.76 469.934V467.885C1551.76 443.858 1537.7 429.082 1517.17 429.082C1508.4 429.082 1499.87 432.692 1493.37 439.173C1487.01 445.537 1483.54 453.832 1483.54 462.831C1483.54 471.831 1486.78 480.126 1493.02 486.741C1499.64 493.709 1507.56 497.068 1517.4 497.068C1531.83 497.068 1542.5 490.217 1548.75 476.768H1527.85C1524.96 479.286 1521.83 480.378 1517.99 480.378C1509.7 480.378 1504.78 476.768 1503.1 469.934H1551.74H1551.76Z" fill="#292F36"></path><path d="M1604.46 456.484H1574.31C1575.63 450.356 1581.28 446.276 1589.2 446.276C1597.13 446.276 1602.16 449.886 1604.46 456.484ZM1623.57 469.934V467.885C1623.57 443.858 1609.52 429.082 1588.98 429.082C1580.22 429.082 1571.69 432.692 1565.19 439.173C1558.83 445.537 1555.35 453.832 1555.35 462.831C1555.35 471.831 1558.59 480.126 1564.84 486.741C1571.45 493.709 1579.38 497.068 1589.22 497.068C1603.64 497.068 1614.32 490.217 1620.57 476.768H1599.66C1596.77 479.286 1593.65 480.378 1589.82 480.378C1581.53 480.378 1576.61 476.768 1574.93 469.934H1623.57Z" fill="#292F36"></path><path d="M1456.64 445.431V495.518H1475.26V445.431H1482.84V431.025H1475.26V429.463C1475.26 423.569 1476.59 421.655 1482.35 421.655H1482.84V408.676C1481.76 408.676 1480.79 408.559 1479.83 408.559C1463.96 408.559 1456.53 414.805 1456.53 428.623C1456.53 429.345 1456.64 430.185 1456.64 431.025H1449.68V445.448H1456.64V445.431Z" fill="#292F36"></path><path d="M1630.8 445.435V495.521H1649.42V445.435H1656.99V431.028H1649.42V429.467C1649.42 423.573 1650.75 421.659 1656.51 421.659H1656.98V408.68C1655.9 408.68 1654.93 408.562 1653.97 408.562C1638.12 408.562 1630.67 414.809 1630.67 428.627C1630.67 429.349 1630.78 430.189 1630.78 431.028H1623.82V445.452H1630.78L1630.8 445.435Z" fill="#292F36"></path><path d="M1706.18 463.332C1706.18 472.097 1699.33 479.182 1690.93 479.182C1682.54 479.182 1675.67 472.097 1675.67 463.332C1675.67 454.567 1682.52 447.364 1690.93 447.364C1699.34 447.364 1706.18 454.45 1706.18 463.332ZM1725.03 462.862C1725.03 454.097 1721.31 445.198 1714.47 438.717C1707.99 432.588 1699.95 429.348 1690.56 429.348C1681.8 429.348 1673.27 432.958 1666.77 439.439C1660.41 445.803 1656.93 454.097 1656.93 463.097C1656.93 472.097 1660.17 480.391 1666.42 486.889C1673.03 493.857 1680.96 497.216 1690.8 497.216C1700.64 497.216 1708.7 493.74 1715.31 487.124C1721.79 480.643 1725.03 472.584 1725.03 462.862Z" fill="#292F36"></path><path d="M1754.2 452.385C1745.07 451.831 1737.72 444.493 1737.21 435.343H1777.17V434.906C1777.17 419.207 1767.15 408.746 1753.28 408.746C1738.64 408.746 1728.7 419.475 1728.7 433.412C1728.7 446.576 1738.99 458.178 1753.03 458.178C1763.24 458.178 1771.35 452.519 1775.7 442.042H1771.67C1768.76 448.171 1762.53 452.402 1755.3 452.402C1754.93 452.402 1754.59 452.402 1754.22 452.368" fill="#FFD100"></path><path d="M1804.93 452.385C1814.06 451.831 1821.42 444.493 1821.92 435.343H1781.96V434.906C1781.96 419.207 1791.98 408.746 1805.85 408.746C1820.5 408.746 1830.44 419.475 1830.44 433.412C1830.44 446.576 1820.14 458.178 1806.11 458.178C1795.91 458.178 1787.8 452.519 1783.44 442.042H1787.49C1790.39 448.171 1796.62 452.402 1803.86 452.402C1804.23 452.402 1804.56 452.402 1804.93 452.368" fill="#FFD100"></path><defs><linearGradient id="paint0_linear_6072_2526" x1="73.6758" y1="162.017" x2="225.061" y2="162.017" gradientUnits="userSpaceOnUse"><stop offset="0.4062" stop-color="#C4C4C4"></stop><stop offset="1" stop-color="#D9D9D9" stop-opacity="0"></stop></linearGradient></defs></svg>